HIERARCHY
ROOT Hips
{
	OFFSET	0.00	0.00	0.00
	CHANNELS 6 Xposition Yposition Zposition Zrotation Xrotation Yrotation
	JOINT LeftUpLeg
	{
		OFFSET	 0.126116	-0.014019	-0.065224
		CHANNELS 3 Zrotation Xrotation Yrotation
		JOINT LeftLeg
		{
			OFFSET	 0.000000	 0.000000	 0.569914
			CHANNELS 3 Zrotation Xrotation Yrotation
			JOINT LeftFoot
			{
				OFFSET	 0.000000	 0.000000	 0.544423
				CHANNELS 3 Zrotation Xrotation Yrotation
				JOINT LeftToeBase
				{
					OFFSET	 0.000000	 0.000000	 0.207117
					CHANNELS 3 Zrotation Xrotation Yrotation
					End Site
					{
						OFFSET	 0.000000	 0.000000	 0.207117
					}
				}
			}
		}
	}
	JOINT RightUpLeg
	{
		OFFSET	-0.124023	-0.008373	-0.065224
		CHANNELS 3 Zrotation Xrotation Yrotation
		JOINT RightLeg
		{
			OFFSET	 0.000000	 0.000000	 0.570047
			CHANNELS 3 Zrotation Xrotation Yrotation
			JOINT RightFoot
			{
				OFFSET	 0.000000	 0.000000	 0.544354
				CHANNELS 3 Zrotation Xrotation Yrotation
				JOINT RightToeBase
				{
					OFFSET	 0.000000	 0.000000	 0.207540
					CHANNELS 3 Zrotation Xrotation Yrotation
					End Site
					{
						OFFSET	 0.000000	 0.000000	 0.207540
					}
				}
			}
		}
	}
	JOINT Spine
	{
		OFFSET	 0.000184	-0.007763	 0.117403
		CHANNELS 3 Zrotation Xrotation Yrotation
		JOINT Spine1
		{
			OFFSET	 0.000000	 0.000000	 0.137269
			CHANNELS 3 Zrotation Xrotation Yrotation
			JOINT Spine2
			{
				OFFSET	 0.000000	 0.000000	 0.156879
				CHANNELS 3 Zrotation Xrotation Yrotation
				JOINT LeftShoulder
				{
					OFFSET	 0.080501	-0.002496	 0.160144
					CHANNELS 3 Zrotation Xrotation Yrotation
					JOINT LeftArm
					{
						OFFSET	 0.000000	 0.000000	 0.164363
						CHANNELS 3 Zrotation Xrotation Yrotation
						JOINT LeftForeArm
						{
							OFFSET	 0.000000	 0.000000	 0.364576
							CHANNELS 3 Zrotation Xrotation Yrotation
							JOINT LeftHand
							{
								OFFSET	 0.000000	 0.000000	 0.360812
								CHANNELS 3 Zrotation Xrotation Yrotation
								JOINT LeftHandIndex1
								{
									OFFSET	 0.000000	 0.000000	 0.086006
									CHANNELS 3 Zrotation Xrotation Yrotation
									JOINT LeftHandIndex2
									{
										OFFSET	 0.000000	 0.000000	 0.047236
										CHANNELS 3 Zrotation Xrotation Yrotation
										JOINT LeftHandIndex3
										{
											OFFSET	-0.004284	-0.000551	 0.038166
											CHANNELS 3 Zrotation Xrotation Yrotation
											End Site
											{
												OFFSET	-0.004284	-0.000551	 0.038166
											}
										}
									}
								}
							}
						}
					}
				}
				JOINT Neck
				{
					OFFSET	 0.000000	 0.000000	 0.176489
					CHANNELS 3 Zrotation Xrotation Yrotation
					JOINT Head
					{
						OFFSET	 0.000000	-0.001747	 0.077940
						CHANNELS 3 Zrotation Xrotation Yrotation
						End Site
						{
							OFFSET	 0.000000	-0.001747	 0.077940
						}
					}
				}
				JOINT RightShoulder
				{
					OFFSET	-0.080363	 0.000306	 0.159706
					CHANNELS 3 Zrotation Xrotation Yrotation
					JOINT RightArm
					{
						OFFSET	 0.000000	 0.000000	 0.164196
						CHANNELS 3 Zrotation Xrotation Yrotation
						JOINT RightForeArm
						{
							OFFSET	 0.000000	 0.000000	 0.365611
							CHANNELS 3 Zrotation Xrotation Yrotation
							JOINT RightHand
							{
								OFFSET	 0.000000	 0.000000	 0.360648
								CHANNELS 3 Zrotation Xrotation Yrotation
								JOINT RightHandIndex1
								{
									OFFSET	 0.000000	 0.000000	 0.069977
									CHANNELS 3 Zrotation Xrotation Yrotation
									JOINT RightHandIndex2
									{
										OFFSET	 0.000000	 0.000000	 0.052305
										CHANNELS 3 Zrotation Xrotation Yrotation
										JOINT RightHandIndex3
										{
											OFFSET	 0.009002	-0.000782	 0.042196
											CHANNELS 3 Zrotation Xrotation Yrotation
											End Site
											{
												OFFSET	 0.009002	-0.000782	 0.042196
											}
										}
									}
								}
							}
						}
					}
				}
			}
		}
	}
}
MOTION
Frames:    4
Frame Time: 0.03333334
-0.000473	 0.017154	 1.307026	 0.003790	 0.005542	-0.120833	-17.856040	-1.838289	-179.076200	 1.469789	-12.233050	-0.714657	-3.225017	 64.888090	-3.242515	-2.385833	 28.452760	 0.000004	 17.728270	-2.389766	 179.340400	-1.445771	-13.057210	 0.750410	 3.224041	 65.110730	 3.075328	 2.384658	 28.388730	 0.000004	 2.808848	 2.757141	-0.044522	 1.440714	 3.568731	 0.583029	-4.332338	-4.466579	-0.947748	-91.776150	 78.527470	 180.000000	 63.499940	 43.812560	-45.041550	-7.691990	 4.651447	-11.712190	-29.126470	 5.207296	-4.197582	-2.635965	 4.993658	 6.788941	-5.165319	 0.784187	 3.516649	-5.225038	 0.466231	 0.424329	-0.000002	-3.783157	-0.089647	-4.206177	 4.932100	 0.181215	 89.782070	 78.203890	-180.000000	 10.308030	 13.265350	 83.221720	-33.689220	-4.853000	 14.578750	 4.782637	 4.535707	-6.198128	 6.112037	 4.509576	-0.364401	 4.968462	 1.518543	-9.347576	 5.168945	 0.703820	 2.021906
-0.000456	 0.017105	 1.307905	 0.004024	 0.006524	-0.108385	-17.851100	-1.843363	-179.087700	 1.469576	-12.249120	-0.715624	-3.238044	 64.757610	-3.225878	-2.385833	 28.452760	 0.000004	 17.722520	-2.381493	 179.331400	-1.446121	-13.030980	 0.748849	 3.233893	 64.958980	 3.061940	 2.384658	 28.388730	 0.000004	 2.533058	 2.754023	-0.031853	 1.300896	 3.569982	 0.529833	-3.910842	-4.484494	-0.857775	-91.776210	 78.527450	-180.000000	 63.480630	 43.790330	-44.952340	-7.684319	 4.688259	-11.806600	-29.097350	 5.359361	-4.197998	-2.635965	 4.993658	 6.788941	-5.165319	 0.784187	 3.516649	-5.225038	 0.466231	 0.424329	-0.000002	-3.783157	-0.089647	-3.795464	 4.967594	 0.164684	 89.782110	 78.203890	 180.000000	 10.322290	 13.340280	 83.210860	-33.740990	-4.882106	 14.619180	 4.788553	 4.645197	-6.223334	 6.112037	 4.509576	-0.364401	 4.968462	 1.518543	-9.347576	 5.168945	 0.703820	 2.021906
-0.000438	 0.017056	 1.308745	 0.004179	 0.007333	-0.095814	-17.846250	-1.849481	-179.099100	 1.469345	-12.267760	-0.716751	-3.250482	 64.634320	-3.209961	-2.385833	 28.452760	 0.000004	 17.716960	-2.373291	 179.322100	-1.446469	-13.005170	 0.747313	 3.243036	 64.813330	 3.049330	 2.384658	 28.388730	 0.000004	 2.250628	 2.751103	-0.018750	 1.157667	 3.571462	 0.475133	-3.479010	-4.501455	-0.765289	-91.776050	 78.527450	 179.999900	 63.467860	 43.765270	-44.869030	-7.676414	 4.726085	-11.903690	-29.072460	 5.453415	-4.199102	-2.635965	 4.993658	 6.788941	-5.165319	 0.784187	 3.516649	-5.225038	 0.466231	 0.424329	-0.000002	-3.783157	-0.089647	-3.374907	 4.999991	 0.147379	 89.782140	 78.203900	 180.000000	 10.337430	 13.419490	 83.200100	-33.793590	-4.911427	 14.659500	 4.790745	 4.692639	-6.247780	 6.112037	 4.509576	-0.364401	 4.968462	 1.518543	-9.347576	 5.168945	 0.703820	 2.021906
-0.000414	 0.017005	 1.309607	 0.004259	 0.007984	-0.082315	-17.841090	-1.857326	-179.110900	 1.469046	-12.290810	-0.718136	-3.263268	 64.508710	-3.193531	-2.385833	 28.452760	 0.000004	 17.711250	-2.364658	 179.311900	-1.446820	-12.978260	 0.745715	 3.252280	 64.662630	 3.036469	 2.384658	 28.388730	 0.000004	 1.941407	 2.748259	-0.004188	 1.000813	 3.573150	 0.415029	-3.005960	-4.518211	-0.663680	-91.776120	 78.527400	 179.999900	 63.461000	 43.736070	-44.786270	-7.667500	 4.768320	-12.012000	-29.051110	 5.479937	-4.201220	-2.635965	 4.993658	 6.788941	-5.165319	 0.784187	 3.516649	-5.225038	 0.466231	 0.424329	-0.000002	-3.783157	-0.089647	-2.914584	 5.031057	 0.128058	 89.782180	 78.203890	 179.999900	 10.350560	 13.502880	 83.187110	-33.848450	-4.942696	 14.702880	 4.784506	 4.673850	-6.271045	 6.112037	 4.509576	-0.364401	 4.968462	 1.518543	-9.347576	 5.168945	 0.703820	 2.021906
